<?xml version="1.0" encoding="UTF-8"?>
<svg height="16px" viewBox="0 0 16 16" width="16px" xmlns="http://www.w3.org/2000/svg">
    <path d="m 1.5,5.5 1.636719,6.546875 C 3.351562,12.898438 4.117188,13.5 5,13.5 h 6 c 0.882812,0 1.648438,-0.601562 1.863281,-1.453125 L 14.5,5.5 h -5 V 6 C 9.5,6.8125 8.8125,7.5 8,7.5 7.1875,7.5 6.5,6.8125 6.5,6 V 5.5 Z m 4,3 h 1 v 3 h -1 z m 2,0 h 1 v 3 h -1 z m 2,0 h 1 v 3 h -1 z m 0,0" fill="#241f31" id="path2" />
    <path d="M 8,2.5 C 8.277344,2.5 8.5,2.722656 8.5,3 V 6 C 8.5,6.277344 8.277344,6.5 8,6.5 7.722656,6.5 7.5,6.277344 7.5,6 V 3 C 7.5,2.722656 7.722656,2.5 8,2.5 Z m 0,0" fill="#241f31" id="path6" />
</svg>
