<?xml version="1.0" encoding="UTF-8"?>
<svg height="16px" viewBox="0 0 16 16" width="16px" xmlns="http://www.w3.org/2000/svg">
    <path d="m 1 6 l 1.636719 6.546875 c 0.214843 0.851563 0.980469 1.453125 1.863281 1.453125 h 6 c 0.882812 0 1.648438 -0.601562 1.863281 -1.453125 l 1.636719 -6.546875 h -5 v 0.5 c 0 0.8125 -0.6875 1.5 -1.5 1.5 s -1.5 -0.6875 -1.5 -1.5 v -0.5 z m 4 3 h 1 v 3 h -1 z m 2 0 h 1 v 3 h -1 z m 2 0 h 1 v 3 h -1 z m 0 0" fill="#241f31"/>
    <path d="m 7.5 3 c 0.277344 0 0.5 0.222656 0.5 0.5 v 3 c 0 0.277344 -0.222656 0.5 -0.5 0.5 s -0.5 -0.222656 -0.5 -0.5 v -3 c 0 -0.277344 0.222656 -0.5 0.5 -0.5 z m 0 0"/>
    <path d="m 7.5 3 c 0.277344 0 0.5 0.222656 0.5 0.5 v 3 c 0 0.277344 -0.222656 0.5 -0.5 0.5 s -0.5 -0.222656 -0.5 -0.5 v -3 c 0 -0.277344 0.222656 -0.5 0.5 -0.5 z m 0 0" fill="#241f31"/>
</svg>
