<?xml version="1.0" encoding="UTF-8"?>
<svg height="128px" viewBox="0 0 128 128" width="128px" xmlns="http://www.w3.org/2000/svg" xmlns:xlink="http://www.w3.org/1999/xlink">
    <linearGradient id="a" gradientUnits="userSpaceOnUse" x1="88" x2="88" y1="46" y2="26">
        <stop offset="0" stop-color="#9141ac"/>
        <stop offset="1" stop-color="#dc8add"/>
    </linearGradient>
    <linearGradient id="b" gradientUnits="userSpaceOnUse" x1="14" x2="110" y1="82" y2="82">
        <stop offset="0" stop-color="#e5a50a"/>
        <stop offset="0.104167" stop-color="#f5c211"/>
        <stop offset="0.1875" stop-color="#e5a50a"/>
        <stop offset="0.8125" stop-color="#e5a50a"/>
        <stop offset="0.895833" stop-color="#f5c211"/>
        <stop offset="1" stop-color="#e5a50a"/>
    </linearGradient>
    <linearGradient id="c" gradientTransform="matrix(1.5 0 0 1.1875 -48 -198.5)" gradientUnits="userSpaceOnUse" x1="68" x2="68" y1="204" y2="184">
        <stop offset="0" stop-color="#ed333b"/>
        <stop offset="1" stop-color="#f66151"/>
    </linearGradient>
    <linearGradient id="d" gradientTransform="matrix(0 -1 -1.1875 0 272.5 118)" gradientUnits="userSpaceOnUse" x1="68" x2="68" y1="216" y2="184">
        <stop offset="0" stop-color="#3584e4"/>
        <stop offset="1" stop-color="#99ebf2"/>
    </linearGradient>
    <clipPath id="e">
        <rect height="128" width="128"/>
    </clipPath>
    <clipPath id="f">
        <rect height="128" width="128"/>
    </clipPath>
    <filter id="g" height="100%" width="100%" x="0%" y="0%">
        <feColorMatrix in="SourceGraphic" type="matrix" values="0 0 0 0 1 0 0 0 0 1 0 0 0 0 1 0 0 0 1 0"/>
    </filter>
    <mask id="h">
        <g clip-path="url(#f)" filter="url(#g)">
            <g clip-path="url(#e)">
                <path d="m 80 26 h 24 c 2.210938 0 4 1.789062 4 4 v 24 c 0 2.210938 -1.789062 4 -4 4 h -24 c -2.210938 0 -4 -1.789062 -4 -4 v -24 c 0 -2.210938 1.789062 -4 4 -4 z m 0 0" fill="url(#a)"/>
                <path d="m 106.09375 106.222656 l 9.90625 -46.222656 v -10 h -108 v 10 l 9.90625 46.222656 c 1.21875 5.703125 6.261719 9.777344 12.09375 9.777344 h 64 c 5.832031 0 10.875 -4.074219 12.09375 -9.777344 z m 0 0" fill="url(#b)"/>
                <path d="m 40 20 h 40 c 2.210938 0 4 1.789062 4 4 v 30 c 0 2.210938 -1.789062 4 -4 4 h -40 c -2.210938 0 -4 -1.789062 -4 -4 v -30 c 0 -2.210938 1.789062 -4 4 -4 z m 0 0" fill="url(#c)"/>
                <path d="m 66 20 h 4 v 38 h -4 z m 0 0" fill="#a51d2d"/>
                <path d="m 54 54 v -16 c 0 -4.417969 -3.582031 -8 -8 -8 h -22 c -4.417969 0 -8 3.582031 -8 8 v 16 c 0 4.417969 3.582031 8 8 8 h 22 c 4.417969 0 8 -3.582031 8 -8 z m 0 0" fill="url(#d)"/>
                <path d="m 106.09375 96.222656 l 9.90625 -46.222656 h -108 l 9.90625 46.222656 c 1.21875 5.703125 6.261719 9.777344 12.09375 9.777344 h 64 c 5.832031 0 10.875 -4.074219 12.09375 -9.777344 z m 0 0" fill="#f6d32d"/>
                <path d="m 43 241 v 22" fill="none" stroke="#e5a50a" stroke-linecap="round" stroke-width="6" transform="matrix(1 0 0 1 0 -172)"/>
                <path d="m 63 241 v 22" fill="none" stroke="#e5a50a" stroke-linecap="round" stroke-width="6" transform="matrix(1 0 0 1 0 -172)"/>
                <path d="m 83 241 v 22" fill="none" stroke="#e5a50a" stroke-linecap="round" stroke-width="6" transform="matrix(1 0 0 1 0 -172)"/>
                <path d="m 6 48 h 112 v 12 h -112 z m 0 0" fill="#e5a50a"/>
                <path d="m 6 44 h 112 v 12 h -112 z m 0 0" fill="#f6d32d"/>
                <path d="m 62 7 c 3.3125 0 6 2.6875 6 6 v 36 c 0 3.3125 -2.6875 6 -6 6 s -6 -2.6875 -6 -6 v -36 c 0 -3.3125 2.6875 -6 6 -6 z m 0 0" fill="#9c7007"/>
                <path d="m 62 7 c 3.3125 0 6 2.6875 6 6 v 34 c 0 3.3125 -2.6875 6 -6 6 s -6 -2.6875 -6 -6 v -34 c 0 -3.3125 2.6875 -6 6 -6 z m 0 0" fill="#e5a50a"/>
                <path d="m 64.980469 47 c 0 1.644531 -1.335938 2.980469 -2.980469 2.980469 s -2.980469 -1.335938 -2.980469 -2.980469 s 1.335938 -2.980469 2.980469 -2.980469 s 2.980469 1.335938 2.980469 2.980469 z m 0 0" fill="#9c7007"/>
            </g>
        </g>
    </mask>
    <mask id="i">
        <g filter="url(#g)">
            <rect fill-opacity="0.8" height="128" width="128"/>
        </g>
    </mask>
    <linearGradient id="j" gradientTransform="matrix(0 0.37 -0.98462 0 295.38501 -30.360001)" gradientUnits="userSpaceOnUse" x1="300" x2="428" y1="235" y2="235">
        <stop offset="0" stop-color="#f9f06b"/>
        <stop offset="1" stop-color="#f5c211"/>
    </linearGradient>
    <clipPath id="k">
        <rect height="128" width="128"/>
    </clipPath>
    <clipPath id="l">
        <rect height="128" width="128"/>
    </clipPath>
    <path d="m 80 26 h 24 c 2.210938 0 4 1.789062 4 4 v 24 c 0 2.210938 -1.789062 4 -4 4 h -24 c -2.210938 0 -4 -1.789062 -4 -4 v -24 c 0 -2.210938 1.789062 -4 4 -4 z m 0 0" fill="url(#a)"/>
    <path d="m 106.09375 106.222656 l 9.90625 -46.222656 v -10 h -108 v 10 l 9.90625 46.222656 c 1.21875 5.703125 6.261719 9.777344 12.09375 9.777344 h 64 c 5.832031 0 10.875 -4.074219 12.09375 -9.777344 z m 0 0" fill="url(#b)"/>
    <path d="m 40 20 h 40 c 2.210938 0 4 1.789062 4 4 v 30 c 0 2.210938 -1.789062 4 -4 4 h -40 c -2.210938 0 -4 -1.789062 -4 -4 v -30 c 0 -2.210938 1.789062 -4 4 -4 z m 0 0" fill="url(#c)"/>
    <path d="m 66 20 h 4 v 38 h -4 z m 0 0" fill="#a51d2d"/>
    <path d="m 54 54 v -16 c 0 -4.417969 -3.582031 -8 -8 -8 h -22 c -4.417969 0 -8 3.582031 -8 8 v 16 c 0 4.417969 3.582031 8 8 8 h 22 c 4.417969 0 8 -3.582031 8 -8 z m 0 0" fill="url(#d)"/>
    <path d="m 106.09375 96.222656 l 9.90625 -46.222656 h -108 l 9.90625 46.222656 c 1.21875 5.703125 6.261719 9.777344 12.09375 9.777344 h 64 c 5.832031 0 10.875 -4.074219 12.09375 -9.777344 z m 0 0" fill="#f6d32d"/>
    <g fill="none" stroke="#e5a50a" stroke-linecap="round" stroke-width="6">
        <path d="m 43 69 v 22"/>
        <path d="m 63 69 v 22"/>
        <path d="m 83 69 v 22"/>
    </g>
    <path d="m 6 48 h 112 v 12 h -112 z m 0 0" fill="#e5a50a"/>
    <path d="m 6 44 h 112 v 12 h -112 z m 0 0" fill="#f6d32d"/>
    <path d="m 62 7 c 3.3125 0 6 2.6875 6 6 v 36 c 0 3.3125 -2.6875 6 -6 6 s -6 -2.6875 -6 -6 v -36 c 0 -3.3125 2.6875 -6 6 -6 z m 0 0" fill="#9c7007"/>
    <path d="m 62 7 c 3.3125 0 6 2.6875 6 6 v 34 c 0 3.3125 -2.6875 6 -6 6 s -6 -2.6875 -6 -6 v -34 c 0 -3.3125 2.6875 -6 6 -6 z m 0 0" fill="#e5a50a"/>
    <path d="m 64.980469 47 c 0 1.644531 -1.335938 2.980469 -2.980469 2.980469 s -2.980469 -1.335938 -2.980469 -2.980469 s 1.335938 -2.980469 2.980469 -2.980469 s 2.980469 1.335938 2.980469 2.980469 z m 0 0" fill="#9c7007"/>
    <g clip-path="url(#l)" mask="url(#h)">
        <g clip-path="url(#k)" mask="url(#i)">
            <path d="m 128 80.640625 v 47.359375 h -128 v -47.359375 z m 0 0" fill="url(#j)"/>
            <path d="m 13.308594 80.640625 l 47.355468 47.359375 h 21.214844 l -47.359375 -47.359375 z m 42.421875 0 l 47.363281 47.359375 h 21.214844 l -47.363282 -47.359375 z m 42.429687 0 l 29.839844 29.839844 v -21.210938 l -8.628906 -8.628906 z m -98.160156 7.90625 v 21.214844 l 18.238281 18.238281 h 21.214844 z m 0 0"/>
        </g>
    </g>
</svg>
