<?xml version="1.0" encoding="UTF-8" standalone="no"?>
<svg
   xmlns:dc="http://purl.org/dc/elements/1.1/"
   xmlns:cc="http://creativecommons.org/ns#"
   xmlns:rdf="http://www.w3.org/1999/02/22-rdf-syntax-ns#"
   xmlns:svg="http://www.w3.org/2000/svg"
   xmlns="http://www.w3.org/2000/svg"
   xmlns:xlink="http://www.w3.org/1999/xlink"
   xmlns:sodipodi="http://sodipodi.sourceforge.net/DTD/sodipodi-0.dtd"
   xmlns:inkscape="http://www.inkscape.org/namespaces/inkscape"
   inkscape:version="1.0 (4035a4fb49, 2020-05-01)"
   sodipodi:docname="org.gnome.Store.Devel.svg"
   id="svg66"
   version="1.1"
   height="128"
   width="128">
  <metadata
     id="metadata70">
    <rdf:RDF>
      <cc:Work
         rdf:about="">
        <dc:format>image/svg+xml</dc:format>
        <dc:type
           rdf:resource="http://purl.org/dc/dcmitype/StillImage" />
      </cc:Work>
    </rdf:RDF>
  </metadata>
  <sodipodi:namedview
     inkscape:current-layer="svg66"
     inkscape:window-maximized="1"
     inkscape:window-y="0"
     inkscape:window-x="0"
     inkscape:cy="64"
     inkscape:cx="29.591024"
     inkscape:zoom="6.203125"
     showgrid="false"
     id="namedview68"
     inkscape:window-height="1016"
     inkscape:window-width="1920"
     inkscape:pageshadow="2"
     inkscape:pageopacity="0"
     guidetolerance="10"
     gridtolerance="10"
     objecttolerance="10"
     borderopacity="1"
     bordercolor="#666666"
     pagecolor="#ffffff" />
  <defs
     id="defs52">
    <clipPath
       id="a">
      <path
         id="path2"
         d="M0 0h128v128H0z" />
    </clipPath>
    <clipPath
       id="b">
      <path
         id="path5"
         d="M0 0h128v128H0z" />
    </clipPath>
    <clipPath
       id="h">
      <path
         id="path8"
         d="M0 0h128v128H0z" />
    </clipPath>
    <clipPath
       id="f">
      <path
         id="path11"
         d="M0 0h128v128H0z" />
    </clipPath>
    <g
       filter="url(#c)"
       clip-path="url(#b)"
       id="e">
      <use
         id="use14"
         xlink:href="#d" />
    </g>
    <g
       clip-path="url(#f)"
       id="i">
      <path
         id="path17"
         fill="url(#g)"
         d="M128 80.64V128H0V80.64zm0 0" />
      <path
         id="path19"
         d="M13.309 80.64L60.664 128H81.88l-47.36-47.36zm42.421 0L103.094 128h21.215L76.945 80.64zm42.43 0L128 110.48V89.27l-8.629-8.63zM0 88.548v21.215L18.238 128h21.215zm0 0" />
    </g>
    <g
       clip-path="url(#a)"
       id="d">
      <path
         id="path22"
         fill="#98c1f1"
         d="M20 72h88a8 8 0 018 8v28a8 8 0 01-8 8H20a8 8 0 01-8-8V80a8 8 0 018-8zm0 0" />
      <path
         id="path24"
         fill="#e7f0fc"
         d="M12 20h104v88H12zm0 0" />
      <path
         id="path26"
         fill="#1a5fb4"
         d="M55 29a5 5 0 11-10 0 5 5 0 0110 0zm0 0M83 29a5 5 0 11-10 0 5 5 0 0110 0zm0 0" />
      <path
         id="path28"
         stroke="#62a0ea"
         stroke-linejoin="round"
         stroke-linecap="round"
         stroke-width="4"
         fill="none"
         d="M50 28v-8c0-7.758 6.242-14 14-14s14 6.242 14 14v8" />
      <path
         id="path30"
         fill="#3584e4"
         d="M64 44c-11.047 0-20 8.953-20 20s8.953 20 20 20 20-8.953 20-20-8.953-20-20-20zm-8 10a1.999 1.999 0 110 4 1.999 1.999 0 110-4zm8 0a1.999 1.999 0 110 4 1.999 1.999 0 110-4zm8 0a1.999 1.999 0 110 4 1.999 1.999 0 110-4zm-16 8a1.999 1.999 0 110 4 1.999 1.999 0 110-4zm8 0a1.999 1.999 0 110 4 1.999 1.999 0 110-4zm8 0a1.999 1.999 0 110 4 1.999 1.999 0 110-4zm-16 8a1.999 1.999 0 110 4 1.999 1.999 0 110-4zm8 0a1.999 1.999 0 110 4 1.999 1.999 0 110-4zm8 0a1.999 1.999 0 110 4 1.999 1.999 0 110-4zm0 0" />
    </g>
    <g
       clip-path="url(#h)"
       id="k">
      <use
         id="use33"
         mask="url(#j)"
         xlink:href="#i" />
    </g>
    <mask
       id="l">
      <use
         id="use36"
         xlink:href="#e" />
    </mask>
    <mask
       id="j">
      <g
         id="g41"
         filter="url(#c)">
        <path
           id="path39"
           d="M0 0h128v128H0z"
           fill-opacity=".8" />
      </g>
    </mask>
    <linearGradient
       gradientTransform="matrix(0 .37 -.98462 0 295.385 -30.36)"
       y2="235"
       x2="428"
       y1="235"
       x1="300"
       gradientUnits="userSpaceOnUse"
       id="g">
      <stop
         id="stop44"
         stop-color="#f9f06b"
         offset="0" />
      <stop
         id="stop46"
         stop-color="#f5c211"
         offset="1" />
    </linearGradient>
    <filter
       height="100%"
       width="100%"
       y="0%"
       x="0%"
       filterUnits="objectBoundingBox"
       id="c">
      <feColorMatrix
         id="feColorMatrix49"
         values="0 0 0 0 1 0 0 0 0 1 0 0 0 0 1 0 0 0 1 0"
         in="SourceGraphic" />
    </filter>
  </defs>
  <path
     style="fill:#33d17a"
     id="path54"
     fill="#98c1f1"
     d="M20 72h88a8 8 0 018 8v28a8 8 0 01-8 8H20a8 8 0 01-8-8V80a8 8 0 018-8zm0 0" />
  <path
     style="fill:#8ff0a4"
     id="path56"
     fill="#e7f0fc"
     d="M12 20h104v88H12zm0 0" />
  <path
     style="fill:#26a269"
     id="path58"
     fill="#1a5fb4"
     d="M55 29a5 5 0 11-10 0 5 5 0 0110 0zm0 0M83 29a5 5 0 11-10 0 5 5 0 0110 0zm0 0" />
  <path
     style="stroke:#2ec27e"
     id="path60"
     stroke="#62a0ea"
     stroke-linejoin="round"
     stroke-linecap="round"
     stroke-width="4"
     fill="none"
     d="M50 28v-8c0-7.758 6.242-14 14-14s14 6.242 14 14v8" />
  <path
     style="fill:#26a269"
     id="path62"
     fill="#3584e4"
     d="M64 44c-11.047 0-20 8.953-20 20s8.953 20 20 20 20-8.953 20-20-8.953-20-20-20zm-8 10a1.999 1.999 0 110 4 1.999 1.999 0 110-4zm8 0a1.999 1.999 0 110 4 1.999 1.999 0 110-4zm8 0a1.999 1.999 0 110 4 1.999 1.999 0 110-4zm-16 8a1.999 1.999 0 110 4 1.999 1.999 0 110-4zm8 0a1.999 1.999 0 110 4 1.999 1.999 0 110-4zm8 0a1.999 1.999 0 110 4 1.999 1.999 0 110-4zm-16 8a1.999 1.999 0 110 4 1.999 1.999 0 110-4zm8 0a1.999 1.999 0 110 4 1.999 1.999 0 110-4zm8 0a1.999 1.999 0 110 4 1.999 1.999 0 110-4zm0 0" />
  <use
     height="100%"
     width="100%"
     y="0"
     x="0"
     id="use64"
     mask="url(#l)"
     xlink:href="#k" />
</svg>
